<?xml version="1.0" encoding="utf-8"?>
<!-- Generator: Adobe Illustrator 24.0.0, SVG Export Plug-In . SVG Version: 6.00 Build 0)  -->
<svg version="1.1" id="Capa_1" xmlns="http://www.w3.org/2000/svg" xmlns:xlink="http://www.w3.org/1999/xlink" x="0px" y="0px"
	 viewBox="0 0 512 512" style="enable-background:new 0 0 512 512;" xml:space="preserve">
<style type="text/css">
	.st0{fill-rule:evenodd;clip-rule:evenodd;}
</style>
<path class="st0" d="M129.2,127.3c40.5-5.9,81.3-8.9,122.3-8.9c41.5,0,82.3,3,122.3,8.9c33.8,5,57.2,34.6,57.2,67.9v102.9
	c0,33.3-23.4,62.9-57.2,67.9c-19.7,2.9-39.5,5.1-59.4,6.5c-2,0.1-3.9,1.2-5.1,2.9l-47.1,70.7c-3.9,5.9-11.9,7.5-17.8,3.6
	c-1.4-0.9-2.6-2.1-3.6-3.6l-47.1-70.7c-1.2-1.7-3-2.8-5.1-2.9c-19.9-1.5-39.7-3.7-59.4-6.6C95.4,361,72,331.3,72,298.1V195.2
	C72,161.9,95.4,132.3,129.2,127.3z M161.8,221c0-7.1,5.7-12.8,12.8-12.8h153.9c7.1,0,12.8,5.7,12.8,12.8c0,7.1-5.7,12.8-12.8,12.8
	H174.6C167.5,233.8,161.8,228.1,161.8,221z M174.6,259.4c-7.1,0-12.8,5.7-12.8,12.8s5.7,12.8,12.8,12.8h76.9
	c7.1,0,12.8-5.7,12.8-12.8s-5.7-12.8-12.8-12.8H174.6z"/>
</svg>
