<?xml version="1.0" encoding="utf-8"?>
<!-- Simple handshake icon for appreciate reaction -->
<svg version="1.1" xmlns="http://www.w3.org/2000/svg" xmlns:xlink="http://www.w3.org/1999/xlink" x="0px" y="0px"
	 viewBox="0 0 512 512" style="enable-background:new 0 0 512 512;" xml:space="preserve">
<path d="M376.2,224.5c-9.7,0-19.1-3.8-26.3-10.7l-54.6-52.5c-7.2-6.9-11.4-16.5-11.4-26.7v-33.4c0-10.2,4.2-19.8,11.4-26.7
	l54.6-52.5c7.2-6.9,16.6-10.7,26.3-10.7c9.7,0,19.1,3.8,26.3,10.7l54.6,52.5c7.2,6.9,11.4,16.5,11.4,26.7v33.4
	c0,10.2-4.2,19.8-11.4,26.7l-54.6,52.5C395.3,220.7,385.9,224.5,376.2,224.5z"/>
<path d="M135.8,224.5c-9.7,0-19.1-3.8-26.3-10.7l-54.6-52.5c-7.2-6.9-11.4-16.5-11.4-26.7v-33.4c0-10.2,4.2-19.8,11.4-26.7
	l54.6-52.5c7.2-6.9,16.6-10.7,26.3-10.7c9.7,0,19.1,3.8,26.3,10.7l54.6,52.5c7.2,6.9,11.4,16.5,11.4,26.7v33.4
	c0,10.2-4.2,19.8-11.4,26.7l-54.6,52.5C154.9,220.7,145.5,224.5,135.8,224.5z"/>
<path d="M256,320c-8.8,0-16-7.2-16-16v-64c0-8.8,7.2-16,16-16s16,7.2,16,16v64C272,312.8,264.8,320,256,320z"/>
<path d="M256,416c-8.8,0-16-7.2-16-16v-64c0-8.8,7.2-16,16-16s16,7.2,16,16v64C272,408.8,264.8,416,256,416z"/>
<path d="M320,368c-8.8,0-16-7.2-16-16v-64c0-8.8,7.2-16,16-16s16,7.2,16,16v64C336,360.8,328.8,368,320,368z"/>
<path d="M192,368c-8.8,0-16-7.2-16-16v-64c0-8.8,7.2-16,16-16s16,7.2,16,16v64C208,360.8,200.8,368,192,368z"/>
</svg>