<?xml version="1.0" encoding="utf-8"?>
<!-- Generator: Adobe Illustrator 24.0.0, SVG Export Plug-In . SVG Version: 6.00 Build 0)  -->
<svg version="1.1" id="Capa_1" xmlns="http://www.w3.org/2000/svg" xmlns:xlink="http://www.w3.org/1999/xlink" x="0px" y="0px"
	 viewBox="0 0 512 512" style="enable-background:new 0 0 512 512;" xml:space="preserve">
<style type="text/css">
	.st0{fill-rule:evenodd;clip-rule:evenodd;}
</style>
<path class="st0" d="M253.5,77C152.7,77,71,158.7,71,259.5S152.7,442,253.5,442S436,360.3,436,259.5S354.3,77,253.5,77z
	 M204.4,189.3c-10.1,0-15.5,7.8-17.5,11.9c-2.4,5.1-3.6,10.6-3.5,16.2c0,5.6,1.1,11.3,3.5,16.2c2,4,7.4,11.9,17.5,11.9
	c10.1,0,15.5-7.8,17.5-11.9c2.4-4.9,3.5-10.6,3.5-16.2s-1.1-11.3-3.5-16.2C219.9,197.2,214.5,189.3,204.4,189.3z M285.1,201.2
	c2-4,7.4-11.9,17.5-11.9c10.1,0,15.5,7.8,17.5,11.9c2.4,4.9,3.5,10.6,3.5,16.2s-1.1,11.3-3.5,16.2c-2,4-7.4,11.9-17.5,11.9
	c-10.1,0-15.5-7.8-17.5-11.9c-2.4-5.1-3.6-10.6-3.5-16.2C281.6,211.8,282.7,206.1,285.1,201.2z M323,329c5.7-5.3,6-14.2,0.7-19.8
	s-14.2-6-19.8-0.7c-0.2,0.2-0.5,0.5-0.7,0.7c-27.4,27.4-71.9,27.4-99.3,0c0,0,0,0,0,0c-5.7-5.3-14.6-5-19.8,0.7
	c-5,5.4-5,13.7,0,19.1C222.4,367.3,284.6,367.3,323,329z"/>
</svg>
