<?xml version="1.0" encoding="utf-8"?>
<!-- Generator: Adobe Illustrator 24.0.0, SVG Export Plug-In . SVG Version: 6.00 Build 0)  -->
<svg version="1.1" id="Capa_1" xmlns="http://www.w3.org/2000/svg" xmlns:xlink="http://www.w3.org/1999/xlink" x="0px" y="0px"
	 viewBox="0 0 512 512" style="enable-background:new 0 0 512 512;" xml:space="preserve">
<style type="text/css">
	.st0{fill-rule:evenodd;clip-rule:evenodd;}
</style>
<path d="M256,74.9c-78.6,0-142.3,63.7-142.3,142.3c0,50.8,27.1,97.7,71,123.2c11.8,6.9,19.2,17.4,19.6,28c0.2,5.8,4.3,10.8,10,12.2
	c6.1,1.4,12.2,2.6,18.5,3.4c5.6,0.7,10.3-3.8,10.3-9.4v-80.4c-5.5-0.6-10.9-1.6-16.2-2.9c-6.9-1.8-11.1-8.8-9.3-15.8
	c1.8-6.9,8.8-11.1,15.8-9.3c14.9,3.8,30.4,3.8,45.3,0c6.9-2,14,2,16,8.8s-2,14-8.8,16c-0.2,0.1-0.5,0.1-0.7,0.2
	c-5.3,1.4-10.7,2.4-16.2,3v80.4c0,5.6,4.8,10.1,10.3,9.4c6.3-0.8,12.5-1.9,18.5-3.4c5.7-1.3,9.8-6.3,10-12.2
	c0.3-10.6,7.7-21.1,19.6-28c68-39.4,91.2-126.4,51.9-194.5C353.7,101.9,306.8,74.9,256,74.9z"/>
<path class="st0" d="M204.5,405.2c1.3-7,8.1-11.6,15.1-10.3c0,0,0,0,0,0c24,4.6,48.7,4.6,72.8,0c7-1.5,13.9,2.9,15.4,9.9
	c1.5,7-2.9,13.9-9.9,15.4c-0.2,0.1-0.5,0.1-0.7,0.1c-27.2,5.2-55.2,5.2-82.5,0C207.7,419,203.1,412.2,204.5,405.2z M217.2,447.4
	c0.7-7.1,7.1-12.3,14.2-11.5c0,0,0,0,0,0c16.3,1.7,32.7,1.7,49.1,0c7.1-0.7,13.5,4.4,14.2,11.5c0.7,7.1-4.4,13.5-11.5,14.2
	c-18.1,1.9-36.3,1.9-54.4,0C221.7,460.8,216.5,454.5,217.2,447.4C217.2,447.4,217.2,447.4,217.2,447.4z"/>
</svg>
