<?xml version="1.0" encoding="utf-8"?>
<!-- Generator: Adobe Illustrator 24.0.0, SVG Export Plug-In . SVG Version: 6.00 Build 0)  -->
<svg version="1.1" id="Capa_1" xmlns="http://www.w3.org/2000/svg" xmlns:xlink="http://www.w3.org/1999/xlink" x="0px" y="0px"
	 viewBox="0 0 512 512" style="enable-background:new 0 0 512 512;" xml:space="preserve">
<style type="text/css">
	.st0{fill-rule:evenodd;clip-rule:evenodd;}
</style>
<path class="st0" d="M256,90.5c-91.4,0-165.5,74.1-165.5,165.5S164.6,421.5,256,421.5S421.5,347.4,421.5,256S347.4,90.5,256,90.5z
	 M211.4,192.3c-9.2,0-14.1,7.1-15.9,10.8c-2.2,4.6-3.3,9.6-3.2,14.7c0,5.1,1,10.3,3.2,14.7c1.8,3.6,6.7,10.8,15.9,10.8
	c9.2,0,14.1-7.1,15.9-10.8c2.2-4.4,3.2-9.6,3.2-14.7s-1-10.3-3.2-14.7C225.5,199.5,220.6,192.3,211.4,192.3z M284.7,203.1
	c1.8-3.6,6.7-10.8,15.9-10.8c9.2,0,14.1,7.1,15.9,10.8c2.2,4.4,3.2,9.6,3.2,14.7s-1,10.3-3.2,14.7c-1.8,3.6-6.7,10.8-15.9,10.8
	c-9.2,0-14.1-7.1-15.9-10.8c-2.2-4.6-3.3-9.6-3.2-14.7C281.5,212.7,282.5,207.5,284.7,203.1z M211,338.3c-5.1,4.9-13.1,4.8-18-0.3
	c-4.8-4.9-4.8-12.8,0-17.7c16.8-16.8,39.6-26.2,63.3-26.1c23.5,0.1,46.1,9.4,62.7,26.1c5.1,4.9,5.2,12.9,0.3,18
	c-4.9,5.1-12.9,5.2-18,0.3c-0.1-0.1-0.2-0.2-0.3-0.3c-11.9-11.9-28-18.6-44.8-18.6C239.3,319.6,223,326.3,211,338.3z"/>
</svg>
