<?xml version="1.0" encoding="utf-8"?>
<!-- Generator: Adobe Illustrator 24.0.0, SVG Export Plug-In . SVG Version: 6.00 Build 0)  -->
<svg version="1.1" id="Capa_1" xmlns="http://www.w3.org/2000/svg" xmlns:xlink="http://www.w3.org/1999/xlink" x="0px" y="0px"
	 viewBox="0 0 512 512" style="enable-background:new 0 0 512 512;" xml:space="preserve">
<path d="M175.7,392.9c-7.9,0-15.2-4.4-18-11.7c-6.3-16.1-9.6-33.3-9.6-50.7c0-32.3,11.1-62,29.6-85.6c2.8-3.5,6.9-5.7,11.1-7.3
	c8.7-3.4,16.4-9.5,22.4-17.1c14.3-18.3,32.3-33.4,52.9-44.3c13.4-7.1,24.9-17.7,30.5-31.7c3.9-9.8,6-20.3,5.9-30.9v-11.7
	c0-7.7,6.2-13.9,13.9-13.9c23,0,41.6,18.6,41.6,41.6c0,21.3-4.8,41.4-13.4,59.5c-4.9,10.3,2,23.7,13.4,23.7h57.8
	c19,0,35.9,12.8,38,31.7c0.8,7.8,1.3,15.7,1.3,23.7c0.1,50.6-17.2,99.6-48.9,139c-7.2,8.9-18.2,13.5-29.7,13.5h-74.2
	c-8.9,0-17.8-1.4-26.3-4.2l-57.5-19.2c-8.5-2.8-17.4-4.3-26.3-4.2C190.1,392.9,175.7,392.9,175.7,392.9z M80.4,249.3
	C70.2,275.2,65,302.8,65,330.6c0,22,3.2,43.8,9.6,64.8c4.8,15.7,20,25.3,36.5,25.3h16.7c8.2,0,13.3-9.2,9.7-16.6
	c-11.3-22.9-17.1-48-17.1-73.5c0-31.6,8.8-61.1,24.1-86.2c4.5-7.4-0.5-17.7-9.2-17.7h-19.4C100.4,226.6,86,235,80.4,249.3
	L80.4,249.3z"/>
</svg>
