<?xml version="1.0" encoding="utf-8"?>
<!-- Generator: Adobe Illustrator 24.0.0, SVG Export Plug-In . SVG Version: 6.00 Build 0)  -->
<svg version="1.1" id="Capa_1" xmlns="http://www.w3.org/2000/svg" xmlns:xlink="http://www.w3.org/1999/xlink" x="0px" y="0px"
	 viewBox="0 0 512 512" style="enable-background:new 0 0 512 512;" xml:space="preserve">
<style type="text/css">
	.st0{fill-rule:evenodd;clip-rule:evenodd;}
</style>
<path d="M253.3,81C180.8,81,122,139.7,122,212.3c0,46.9,25,90.2,65.5,113.6c10.9,6.3,17.7,16,18,25.8c0.2,5.4,3.9,10,9.2,11.2
	c5.6,1.3,11.3,2.4,17.1,3.1c5.1,0.7,9.5-3.5,9.5-8.7v-74.2c-5-0.6-10-1.5-14.9-2.7c-6.4-1.6-10.2-8.2-8.6-14.5
	c1.6-6.4,8.2-10.2,14.5-8.6c13.7,3.5,28.1,3.5,41.8,0c6.3-1.8,12.9,1.8,14.8,8.2c1.8,6.3-1.8,12.9-8.2,14.8
	c-0.2,0.1-0.4,0.1-0.7,0.2c-4.9,1.3-9.9,2.2-14.9,2.7v74.2c0,5.2,4.4,9.3,9.5,8.7c5.8-0.7,11.5-1.8,17.1-3.1c5.2-1.2,9-5.8,9.2-11.2
	c0.3-9.8,7.1-19.5,18-25.8c62.7-36.3,84.2-116.6,47.8-179.4C343.5,106,300.2,81,253.3,81z"/>
<path class="st0" d="M205.8,385.7c1.2-6.5,7.5-10.7,13.9-9.5c0,0,0,0,0,0c22.2,4.2,45,4.2,67.2,0c6.4-1.4,12.8,2.7,14.2,9.1
	c1.4,6.4-2.7,12.8-9.1,14.2c-0.2,0-0.4,0.1-0.7,0.1c-25.1,4.8-50.9,4.8-76.1,0C208.8,398.4,204.6,392.2,205.8,385.7z M217.6,424.6
	c0.7-6.6,6.6-11.3,13.1-10.6c0,0,0,0,0,0c15,1.6,30.2,1.6,45.3,0c6.6-0.7,12.4,4.1,13.1,10.6c0.7,6.6-4.1,12.4-10.6,13.1
	c-16.7,1.7-33.5,1.7-50.2,0C221.6,437,216.9,431.2,217.6,424.6C217.6,424.6,217.6,424.6,217.6,424.6z"/>
</svg>
