<?xml version="1.0" encoding="utf-8"?>
<!-- Generator: Adobe Illustrator 24.0.0, SVG Export Plug-In . SVG Version: 6.00 Build 0)  -->
<svg version="1.1" id="Capa_1" xmlns="http://www.w3.org/2000/svg" xmlns:xlink="http://www.w3.org/1999/xlink" x="0px" y="0px"
	 viewBox="0 0 512 512" style="enable-background:new 0 0 512 512;" xml:space="preserve">
<style type="text/css">
	.st0{fill-rule:evenodd;clip-rule:evenodd;}
</style>
<path class="st0" d="M228.9,434.1c-5.2,5.2-13.7,5.2-18.9,0L102.9,327c-5.2-5.2-5.2-13.7,0-18.9L210,201c5-5.4,13.5-5.7,18.9-0.7
	c5.4,5,5.7,13.5,0.7,18.9c-0.2,0.2-0.4,0.5-0.7,0.7l-84.2,84.2h181.9c51.7,0,93.7-41.9,93.7-93.7s-41.9-93.7-93.7-93.7H273
	c-7.4,0-13.4-6-13.4-13.4S265.6,90,273,90h53.5C393.1,90,447,143.9,447,210.5s-53.9,120.5-120.5,120.5H144.7l84.2,84.2
	C234.1,420.4,234.1,428.9,228.9,434.1z"/>
</svg>
