<svg id="Layer_1" viewBox="0 0 24 24" xmlns="http://www.w3.org/2000/svg" data-name="Layer 1"><path d="m9.494 12c3.752 0 5.5-1.748 5.5-5.5s-1.747-5.5-5.5-5.5-5.5 1.748-5.5 5.5 1.748 5.5 5.5 5.5zm0-9c2.649 0 3.5.851 3.5 3.5s-.851 3.5-3.5 3.5-3.5-.851-3.5-3.5.851-3.5 3.5-3.5zm.506 11.979c.015.552-.421 1.012-.973 1.026-4.28.112-5.913 1.744-6.027 6.021-.014.543-.459.974-.999.974h-.027c-.552-.015-.988-.475-.973-1.026.143-5.369 2.602-7.826 7.973-7.968.572-.012 1.011.422 1.026.974zm12.33 3.655-.927-.535c.058-.339.096-.699.096-1.099s-.038-.76-.096-1.099l.927-.535c.479-.276.642-.888.366-1.366-.277-.482-.897-.64-1.366-.366l-.758.437c-.492-.529-1.179-.863-2.072-.998v-1.074c0-.552-.448-1-1-1s-1 .448-1 1v1.074c-.893.135-1.58.469-2.072.998l-.758-.437c-.469-.274-1.089-.117-1.366.366-.276.478-.113 1.09.366 1.366l.927.535c-.058.339-.096.699-.096 1.099s.038.76.096 1.099l-.927.535c-.479.276-.642.888-.366 1.366.277.482.897.64 1.366.366l.758-.437c.492.529 1.179.863 2.072.998v1.074c0 .552.448 1 1 1s1-.448 1-1v-1.074c.893-.135 1.58-.469 2.072-.998l.758.437c.469.274 1.089.117 1.366-.366.276-.478.113-1.09-.366-1.366zm-4.83.366c-1.589 0-2-.411-2-2s.411-2 2-2 2 .411 2 2-.411 2-2 2z"/></svg>