<?xml version="1.0" encoding="UTF-8"?>
<svg xmlns="http://www.w3.org/2000/svg" id="Layer_1" data-name="Layer 1" viewBox="0 0 24 24">
  <path d="M11.448,18.519c.177,.07,.364,.104,.552,.104,.179,0,.358-.032,.528-.096,.158-.06,3.915-1.526,6.68-6.917,.378-.737,.087-1.641-.65-2.02-.74-.377-1.642-.087-2.02,.65-.987,1.924-2.104,3.223-3.039,4.072V2.5c0-.829-.672-1.5-1.5-1.5s-1.5,.671-1.5,1.5V14.325c-.93-.844-2.041-2.142-3.037-4.085-.378-.737-1.283-1.028-2.02-.65-.737,.378-1.028,1.282-.65,2.02,2.679,5.224,6.257,6.752,6.656,6.909Z"/>
  <path d="M20.894,15.024c-.818-.112-1.573,.472-1.681,1.293-.126,.969-.302,1.945-.525,2.913-4.44,1.018-8.933,1.02-13.375,0-.223-.966-.399-1.943-.525-2.913-.107-.821-.864-1.407-1.681-1.293-.821,.107-1.401,.859-1.294,1.681,.18,1.383,.452,2.778,.81,4.145,.138,.526,.548,.937,1.074,1.073,2.755,.715,5.529,1.073,8.304,1.073s5.55-.357,8.305-1.072c.526-.137,.938-.548,1.074-1.074,.357-1.369,.629-2.764,.809-4.144,.107-.822-.473-1.574-1.294-1.681Z"/>
</svg>
