<?xml version="1.0" encoding="UTF-8"?>
<svg xmlns="http://www.w3.org/2000/svg" id="Layer_1" data-name="Layer 1" viewBox="0 0 24 24">
  <path d="M21.238,5.245c0-3.509-5.274-4.245-9.699-4.245-3.279,0-5.459,.409-6.71,.752-.532,.146-.941,.572-1.065,1.11-.575,2.498-.906,5.025-.983,7.513-.035,1.114-.018,2.257,.048,3.395,0,0,0,.002,0,.003,.28,4.762,1.339,8.054,1.385,8.192,.207,.632,.793,1.034,1.425,1.034,.154,0,.31-.024,.464-.074,.787-.256,1.218-1.102,.963-1.89-.008-.025-.68-2.128-1.056-5.322,1.282,.256,3.101,.482,5.529,.482,2.902,0,9.699,0,9.699-4.262,0-1.258-.828-2.471-1.62-3.344,.792-.874,1.62-2.087,1.62-3.345Z"/>
</svg>
