<?xml version="1.0" encoding="UTF-8"?>
<svg xmlns="http://www.w3.org/2000/svg" id="Layer_1" data-name="Layer 1" viewBox="0 0 24 24">
  <path d="M4.302,8.659c-2,.013-3.302,1.345-3.302,3.314,0,2.011,1.303,3.355,3.321,3.368,2-.013,3.265-1.283,3.301-3.366-.034-2-1.329-3.302-3.32-3.315Z"/>
  <path d="M11.991,8.659c-2,.013-3.302,1.345-3.302,3.314,0,2.011,1.303,3.355,3.321,3.368,2-.013,3.265-1.283,3.301-3.366-.034-2-1.329-3.302-3.32-3.315Z"/>
  <path d="M19.68,8.659c-2,.013-3.302,1.345-3.302,3.314,0,2.011,1.303,3.355,3.321,3.368,2-.013,3.265-1.283,3.301-3.366-.034-2-1.329-3.302-3.32-3.315Z"/>
</svg>
