<?xml version="1.0" encoding="UTF-8"?>
<svg xmlns="http://www.w3.org/2000/svg" id="Layer_1" data-name="Layer 1" viewBox="0 0 24 24">
  <path d="M8.612,12.376c1.236-.009,1.987-.714,2.012-1.927-.023-1.164-.794-1.892-2.022-1.899-1.237,.007-1.99,.712-2.015,1.927,.023,1.18,.775,1.89,2.012,1.899h.014Z"/>
  <path d="M15.391,8.55c-1.237,.007-1.99,.712-2.015,1.927,.023,1.18,.775,1.89,2.012,1.899h.014c1.236-.009,1.987-.714,2.012-1.927-.023-1.164-.794-1.892-2.022-1.899Z"/>
  <path d="M7.84,16.022c-.397,.384-.409,1.017-.025,1.414,.384,.398,1.017,.409,1.414,.025,1.937-1.87,3.644-1.875,5.535-.008,.194,.192,.448,.289,.702,.289,.258,0,.516-.099,.712-.297,.388-.393,.384-1.026-.01-1.414-2.657-2.624-5.614-2.628-8.328-.008Z"/>
  <path d="M11.994,1C4.929,1.044,1,4.841,1,11.982c0,7.018,3.933,10.977,11.006,11.018,7.162-.042,10.861-3.737,10.994-11.017-.122-7.037-4.026-10.938-11.006-10.983Zm.012,20c-6.026-.035-8.888-2.895-9.006-9,.113-6.019,3.059-8.963,8.994-9,5.873,.038,8.903,3.072,9.006,8.981-.112,6.117-2.974,8.983-8.994,9.019Z"/>
</svg>
