<?xml version="1.0" encoding="utf-8"?>
<!-- Generator: Adobe Illustrator 24.0.0, SVG Export Plug-In . SVG Version: 6.00 Build 0)  -->
<svg version="1.1" id="Layer_1" xmlns="http://www.w3.org/2000/svg" xmlns:xlink="http://www.w3.org/1999/xlink" x="0px" y="0px"
	 viewBox="0 0 1366 768" style="enable-background:new 0 0 1366 768;" xml:space="preserve">
<style type="text/css">
	.st0{fill-rule:evenodd;clip-rule:evenodd;}
</style>
<path class="st0" d="M675.78,375.06c2.37-0.35,4.76-0.52,7.15-0.52c2.43,0,4.82,0.18,7.15,0.52c1.98,0.29,3.35,2.02,3.35,3.97v6.02
	c0,1.95-1.37,3.68-3.35,3.97c-1.15,0.17-2.31,0.3-3.48,0.38c-0.12,0.01-0.23,0.07-0.3,0.17l-2.76,4.13
	c-0.23,0.34-0.7,0.44-1.04,0.21c-0.08-0.05-0.15-0.13-0.21-0.21l-2.76-4.13c-0.07-0.1-0.18-0.16-0.3-0.17
	c-1.16-0.09-2.32-0.21-3.48-0.38c-1.98-0.29-3.35-2.02-3.35-3.97v-6.02C672.44,377.08,673.81,375.35,675.78,375.06z M677.69,380.54
	c0-0.41,0.34-0.75,0.75-0.75h9c0.41,0,0.75,0.34,0.75,0.75s-0.34,0.75-0.75,0.75h-9C678.02,381.29,677.69,380.95,677.69,380.54z
	 M678.44,382.79c-0.41,0-0.75,0.34-0.75,0.75s0.34,0.75,0.75,0.75h4.5c0.41,0,0.75-0.34,0.75-0.75s-0.34-0.75-0.75-0.75H678.44z"/>
<path class="st0" d="M675.78,375.06c2.37-0.35,4.76-0.52,7.15-0.52c2.43,0,4.82,0.18,7.15,0.52c1.98,0.29,3.35,2.02,3.35,3.97v6.02
	c0,1.95-1.37,3.68-3.35,3.97c-1.15,0.17-2.31,0.3-3.48,0.38c-0.12,0.01-0.23,0.07-0.3,0.17l-2.76,4.13
	c-0.23,0.34-0.7,0.44-1.04,0.21c-0.08-0.05-0.15-0.13-0.21-0.21l-2.76-4.13c-0.07-0.1-0.18-0.16-0.3-0.17
	c-1.16-0.09-2.32-0.21-3.48-0.38c-1.98-0.29-3.35-2.02-3.35-3.97v-6.02C672.44,377.08,673.81,375.35,675.78,375.06z M677.69,380.54
	c0-0.41,0.34-0.75,0.75-0.75h9c0.41,0,0.75,0.34,0.75,0.75s-0.34,0.75-0.75,0.75h-9C678.02,381.29,677.69,380.95,677.69,380.54z
	 M678.44,382.79c-0.41,0-0.75,0.34-0.75,0.75s0.34,0.75,0.75,0.75h4.5c0.41,0,0.75-0.34,0.75-0.75s-0.34-0.75-0.75-0.75H678.44z"/>
</svg>
