<svg id="Layer_1" viewBox="0 0 24 24" xmlns="http://www.w3.org/2000/svg" data-name="Layer 1"><path d="m9.5 12c3.752 0 5.5-1.748 5.5-5.5s-1.748-5.5-5.5-5.5-5.5 1.748-5.5 5.5 1.748 5.5 5.5 5.5zm0-9c2.649 0 3.5.851 3.5 3.5s-.851 3.5-3.5 3.5-3.5-.851-3.5-3.5.851-3.5 3.5-3.5zm1.408 13.06c-.431-.04-.905-.06-1.408-.06-4.676 0-6.375 1.577-6.494 6.026-.014.543-.459.974-.999.974-.009 0-.018 0-.027 0-.552-.015-.988-.474-.973-1.026.146-5.515 2.766-7.974 8.493-7.974.564 0 1.1.023 1.592.069.55.051.955.538.903 1.088-.051.549-.536.957-1.088.903zm11.255-4.17s-.01-.01-.015-.015c-1.169-1.163-3.07-1.17-4.238-.009l-5.413 5.412c-.87.864-1.379 2.018-1.434 3.25l-.063 1.429c-.038.568.474 1.081 1.042 1.043l1.438-.062c1.235-.054 2.395-.559 3.266-1.422l5.394-5.396c1.123-.998 1.126-3.214.022-4.229zm-1.415 2.794-5.412 5.414c-.515.51-1.204.809-1.941.841l-.348.015.015-.338c.033-.729.333-1.41.848-1.921l5.413-5.412c.378-.375 1.013-.371 1.398-.006.347.275.367 1.105.027 1.408z"/></svg>