<svg id="Layer_1" viewBox="0 0 24 24" xmlns="http://www.w3.org/2000/svg" data-name="Layer 1"><path d="m9.5 12c-3.752 0-5.5-1.748-5.5-5.5s1.748-5.5 5.5-5.5 5.5 1.748 5.5 5.5-1.748 5.5-5.5 5.5zm12.625-.148c-1.059-1.117-3.168-1.128-4.223-.013l-5.42 5.418c-.861.868-1.365 2.026-1.419 3.263l-.062 1.438c-.037.569.475 1.08 1.043 1.042l1.429-.063c1.232-.055 2.386-.564 3.247-1.432l5.417-5.417c1.157-1.165 1.152-3.065-.011-4.236zm-13.122 10.019.062-1.437c.076-1.736.786-3.364 1.998-4.586l1.534-1.534c-.91-.207-1.936-.314-3.096-.314-5.72 0-8.337 2.459-8.486 7.973-.007.27.095.531.283.725s.447.303.717.303h7.168c-.128-.36-.195-.742-.178-1.13z"/></svg>