<svg id="Layer_1" viewBox="0 0 24 24" xmlns="http://www.w3.org/2000/svg" data-name="Layer 1"><path d="m22.547 8.327c-4.24-4.137-10.102-5.499-15.395-3.607l-1.806-1.85c-.579-.593-1.529-.603-2.121-.025-.593.579-.604 1.528-.025 2.121l15.328 15.698c.294.301 1.236.852 2.121.025.605-.566.604-1.528.025-2.121l-2.87-2.939c.355-.024.702-.174.97-.449.579-.593.567-1.542-.026-2.121-1.838-1.793-4.005-2.793-6.294-2.909l-2.932-3.003c3.854-.876 7.837.308 10.931 3.328.292.285 1.273.829 2.121-.026.583-.588.567-1.542-.026-2.121z"/><path d="m2.153 7.681c-.237.207-.47.422-.7.646-.593.578-.606 1.528-.027 2.121.798.818 1.83.312 2.121.027.19-.186.383-.364.58-.536.624-.545.688-1.493.143-2.116-.544-.625-1.493-.687-2.116-.143z"/><path d="m6.277 12.169c-.352.271-.696.57-1.024.889-.593.578-.639 1.562-.027 2.121.945.863 1.83.312 2.121.027.245-.238.5-.46.759-.66.657-.505.779-1.447.274-2.104s-1.447-.779-2.104-.274z"/><path d="m12 16.662c-1.832 0-2.925 1.077-2.925 2.882s1.093 2.881 2.925 2.881 2.925-1.077 2.925-2.881-1.093-2.882-2.925-2.882z"/></svg>